<?xml version="1.0" encoding="UTF-8"?>
<svg id="Calque_1" data-name="Calque 1" xmlns="http://www.w3.org/2000/svg" version="1.1" viewBox="0 0 500 500">
  <path d="M444.18,102.38c0,6.01,0,11.28,0,16.54,0,11.71.05,23.42-.05,35.12,0,1.15-.61,2.54-1.39,3.4-17.33,18.93-35.24,37.37-52.03,56.77-54.16,62.57-98.63,131.33-130.8,207.79-1.79,4.25-3.51,8.54-4.96,12.92-1.44,4.36-2.5,8.86-3.32,11.83-19.02-62.76-51.05-120.45-89.69-174.75-26.28-36.93-56.01-70.92-87.95-103.03-3.93-3.95-7.72-8.03-11.51-12.11-.58-.62-1.09-1.59-1.09-2.41-.05-17.28-.03-34.55,0-51.83,0-.15.16-.29.51-.92,77.96,71.33,145.34,150.6,191.06,247.04,47.62-94.42,111.66-175.93,191.22-246.35Z" fill="#35603a" stroke-width="0"/>
  <path d="M101.55,448.21h-40.05V185.11c.31.16.57.22.73.39,13.85,13.55,26.67,28.01,38.19,43.61.71.97,1.21,2.36,1.21,3.55.01,70.7-.04,141.4-.08,212.11,0,1.03,0,2.07,0,3.44Z" fill="#35603a" stroke-width="0"/>
  <path d="M444,186.13v262.07h-39.81c-.05-.92-.14-1.9-.14-2.89-.02-70.62-.03-141.24.01-211.87,0-1.22.39-2.66,1.11-3.62,11.46-15.41,24.45-29.48,37.92-43.13.19-.19.46-.29.9-.57Z" fill="#35603a" stroke-width="0"/>
  <path d="M390.82,270.78c.14,10.86-1.3,21.68-3.34,32.45-2.97,15.72-11.22,28.84-20.31,41.55-7.72,10.81-15.7,21.45-23.17,32.43-4.06,5.95-6.94,12.56-6.02,20.85.81-1.87,1.2-3.27,1.95-4.45,4.61-7.21,8.93-14.65,14.04-21.49,9.55-12.76,19.54-25.19,26.89-39.42,2.11-4.08,4.01-8.27,6.53-12.31-.93,4.4-1.85,8.81-2.8,13.21-4.37,20.19-12.86,38.94-20.28,58.07-5.87,15.14-10.7,30.59-11.96,46.92-.24,3.09-.31,6.2-.48,9.52h-24.42c-.06-.6-.17-1.23-.17-1.86-.01-32.95,0-65.9-.06-98.86,0-1.72.7-2.42,2.09-3.19,24.47-13.48,43.41-32.35,55.78-57.56,1.24-2.53,2.24-5.19,3.19-7.84.95-2.64,1.71-5.35,2.55-8.04Z" fill="#769543" stroke-width="0"/>
  <path d="M359.4,67.74c-2.06,8.38-3.8,16.84-6.25,25.1-4.13,13.95-10.93,26.6-19.9,38.07-.28.36-.65.65-.99.98-4.7,5.58-9.41,11.16-14.12,16.74-.23-.13-.46-.26-.68-.39,1.37-17.65,6.29-34.48,12.35-51.05-.24-.13-.47-.25-.7-.37-1.91,2.96-4.19,5.76-5.66,8.93-7.01,15.02-11.25,30.76-11.89,47.4-.05,1.18-.67,2.52-1.43,3.46-7.36,9.06-14.81,18.06-22.25,27.08-.1.11-.32.12-.79.3.02-8.5.54-16.74,3.31-24.78,3.15-9.14,4.45-18.5,2.12-28.09-.11-.45-.26-.9-.43-1.34-.05-.12-.22-.18-.24-.18-1.07,6.95-1.81,14.07-3.33,21.01-1.13,5.22-3.54,10.14-4.88,15.33-2.13,8.18-2.6,16.55-1.93,25,.11,1.4-.25,3-.87,4.27-6.21,12.83-12.11,25.72-14.57,39.97-.93,5.33-3.7,10.32-4.74,15.64-1.77,9.05-2.83,18.24-4.06,26.51-.09-.98-.38-2.9-.41-4.83-.27-17.37-.8-34.75-.65-52.11.2-24.14,3.98-47.67,13.42-70.12,8.07-19.22,20.48-35.19,36.37-48.41,8.31-6.92,17.31-13,26-19.46,8.67-4.87,17.34-9.74,26.03-14.58.31-.17.77-.07,1.17-.08Z" fill="#769543" stroke-width="0"/>
  <path d="M176.84,346.55c-.08,33.03-.09,66.06-.1,99.08,0,1.44.01,2.57-2,2.55-7.07-.08-14.14-.03-21.45-.03-.11-.8-.3-1.51-.29-2.22.26-15.03-3.33-29.31-8.34-43.33-.15-.42-.22-.88-.33-1.32-2.49-6.18-4.99-12.36-7.46-18.55-6.75-16.98-12.84-34.17-16.86-52.04-.59-2.65-.89-5.36-1.33-8.05.34.01.69.02,1.03.02.28.67.55,1.34.83,2.01.11.28.22.56.32.83,5.81,12.95,13.39,24.82,21.83,36.18.72.96,1.28,2.05,1.91,3.08,8.26,10.19,16.64,20.3,21.66,32.68.35-.09.7-.19,1.05-.28-.46-2.95-.26-6.2-1.48-8.78-3.2-6.79-6.8-13.41-10.67-19.84-2.66-4.42-6.04-8.42-9.07-12.62-.54-.75-.95-1.59-1.41-2.39-.37-.23-.84-.37-1.08-.69-8.77-11.72-16.98-23.78-22.22-37.59-3.89-10.25-4.95-21.05-6.1-31.82-.46-4.31-.5-8.66-.52-13.04,4.11,16.6,12.59,30.78,23.57,43.61,2.07,2.43,4.17,4.83,6.26,7.24,6.18,5.05,12.23,10.27,18.61,15.08,3.59,2.7,7.67,4.78,11.61,6.99,1.39.78,2.04,1.56,2.03,3.24Z" fill="#769543" stroke-width="0"/>
  <path d="M249.18,273.1c0,.36-.13.73-.66,1.14-.59-4.01-1.28-8.02-1.73-12.05-.96-8.48-2.94-16.67-5.9-24.68-1.37-3.68-1.66-7.76-3.06-11.43-4-10.46-8.33-20.79-12.47-31.19-.44-1.09-.84-2.36-.72-3.49,1.33-12.92-.07-25.4-5.47-37.33-.53-1.17-.64-2.53-.94-3.8-1.09-6.96-2.17-13.92-3.34-21.45-.59,3.08-1.39,5.76-1.57,8.49-.52,7.51.44,14.86,3.13,21.95,2.95,7.81,3.11,15.94,2.82,24.88-1.3-1.85-2.1-3.19-3.11-4.36-6.77-7.86-13.62-15.64-20.32-23.55-.93-1.1-1.65-2.71-1.75-4.14-1.09-17.21-4.97-33.65-13.2-48.92-.55-1.02-1.35-1.9-2.03-2.85-.28.11-.56.21-.84.32,2.1,7.72,4.47,15.38,6.23,23.19,1.77,7.85,2.92,15.84,4.02,23.85-23.59-21.4-37.45-47.64-40.83-79.75,3.45,1.7,6.64,3.23,9.8,4.83,18.4,9.36,35.87,20.1,50.55,34.83,3.98,3.99,7.49,8.45,11.21,12.7,7.53,8.69,13.24,18.53,17.88,29,7.61,17.16,12.14,35.21,12.53,53.92.5,23.29-.1,46.59-.23,69.89Z" fill="#769543" stroke-width="0"/>
  <path d="M112.91,308.85c.56,3.96.92,7.97,1.71,11.88,1.66,8.21,3.59,16.36,5.3,24.56.32,1.52.3,3.19.07,4.73-2.67,17.61-3.03,35.13,2.13,52.41.94,3.15,2.3,6.17,3.94,9.09-2.43-17.34-4.93-34.55-2.71-52.34.34.53.64.86.78,1.24,6.21,16.79,12.68,33.49,18.51,50.41,3.73,10.82,5.71,22.08,5.22,33.64-.05,1.2-.2,2.39-.31,3.71h-35.27v-139.27c.21-.02.41-.04.62-.05Z" fill="#769543" stroke-width="0"/>
  <path d="M356.69,448.29c.67-7.36.89-14.42,2.02-21.33,2.79-17.08,9.97-32.76,16.26-48.71,2.44-6.19,4.83-12.4,7.48-19.22,1.66,17.94-.55,34.93-3.78,51.85l.69.29c.85-1.52,1.91-2.97,2.53-4.58,3.36-8.71,5.15-17.83,5.17-27.1.02-9.98-1.13-19.95-1.25-29.93-.05-4.14,1.19-8.31,1.92-12.45,1.74-9.98,3.52-19.95,5.49-29.99,0,15.86,0,31.72,0,47.58.02,30.12.02,60.24.15,90.36.01,2.63-.74,3.33-3.32,3.3-10.76-.14-21.52-.06-33.35-.06Z" fill="#769543" stroke-width="0"/>
  <path d="M401.08,90.32c-2.14,6.65-4.04,13.14-6.3,19.49-11.06,31.09-27.92,58.63-50.81,82.44-3.79,3.95-7.47,7.99-11.2,11.99-9.95,11.34-20.08,22.53-29.8,34.07-13.86,16.46-26.55,33.82-38.22,51.92-.33.52-.75.97-1.44,1.84-.17-12.95,1.32-24.67,8.52-35.63,12.63-19.24,27.14-36.43,46.68-48.96.3-.2.57-.44.66-1.18-1.74.52-3.52.93-5.2,1.6-7.66,3.06-14.04,8.06-20.07,13.53-10.34,9.39-18.97,20.19-26.29,32.07-.19.31-.45.58-.67.87-.25-.1-.5-.19-.75-.29,1.58-4.69,2.59-9.66,4.83-14.01,6.46-12.55,14.06-24.42,24.88-33.72,4.69-4.03,9.85-7.64,15.24-10.64,6.56-3.66,13.59-6.47,20.41-9.65,4.45-2.61,9.07-4.97,13.28-7.92,4.06-2.84,7.93-6.05,11.42-9.56,2.07-2.08,3.24-5.05,4.45-7.88-8.22,8.56-17.88,14.82-28.46,19.79-5.99,2.94-11.9,6.09-17.99,8.79-15.48,6.86-27.37,17.88-37.18,31.4-.54.75-1.11,1.48-1.67,2.22-.28-.14-.57-.28-.85-.42,2.75-6.08,4.78-12.64,8.39-18.15,12.67-19.3,29.65-34.32,48.7-47.13,8.96-4.94,17.81-10.08,26.9-14.77,6.97-3.59,14.12-6.82,19.58-12.67,1.56-1.66,2.77-3.64,3.82-5.86-15,12.19-33.56,17.81-49.7,27.78-11.87,7.71-22.96,16.4-33.03,26.36-.32.32-.74.53-1.65.34,1.13-1.46,2.18-3,3.42-4.36,7.7-8.41,15.44-16.77,23.16-25.16,2.48-2.69,4.94-5.41,7.41-8.11,4.39-6.01,8.75-12.05,13.22-18,.62-.83,1.73-1.42,2.74-1.8,17.51-6.74,34.2-14.94,48.69-27.1,1.3-1.09,2.57-2.21,3.87-3.3.13-.11.36-.09,1.01-.23Z" fill="#769543" stroke-width="0"/>
  <path d="M408.9,49.87c-1.13,7.05-2.17,13.63-3.23,20.2-.04.28-.2.54-.21.82-.25,7.67-4.43,12.97-10.01,17.78-13.47,11.61-28.76,19.9-45.95,26.15.47-1.22.74-2.05,1.11-2.84,6.45-13.86,10.34-28.49,12.77-43.52.33-2.06,1.01-3.35,3.13-4.08,13.18-4.53,26.32-9.18,39.47-13.78.76-.27,1.57-.39,2.92-.73Z" fill="#769543" stroke-width="0"/>
  <path d="M156.18,115.88c-17.45-6.82-33.21-15.35-46.47-28.18-4.61-4.46-7.54-9.26-8.22-15.75-.76-7.27-2.27-14.47-3.54-22.23,2.35.67,4.16,1.05,5.88,1.68,12.2,4.5,24.37,9.05,36.56,13.56,1.51.56,2.43,1.27,2.63,3.15,1.67,16.15,5.3,31.78,12.69,46.38.12.24.18.52.47,1.38Z" fill="#769543" stroke-width="0"/>
  <path d="M116.99,243.84c5.23,6.43,10.53,12.8,15.68,19.29,15.47,19.54,30.03,39.73,42.73,61.19.94,1.59,1.39,3.65,1.51,5.53.23,3.83.07,7.68.07,11.95-13.02-10.5-25.17-21.32-35.98-33.57-6.9-7.82-12.83-16.3-16.97-25.94-4.86-11.3-7.78-23.02-7.78-35.38,0-.92,0-1.83,0-2.75.25-.11.5-.21.75-.32Z" fill="#769543" stroke-width="0"/>
  <path d="M123.78,123.29s-.05-.03-.08-.04c0-.03,0-.05-.01-.08.01.02.03.03.04.05.02.02.04.05.05.07Z" fill="#769543" stroke-width="0"/>
  <path d="M327.35,343.09c0-3.85-.1-7.7.06-11.54.05-1.13.7-2.32,1.31-3.34,15.26-25.69,32.75-49.79,51.5-73.02,2.95-3.66,5.98-7.26,8.97-10.89.27.06.53.12.8.18-.45,4.87-.64,9.78-1.39,14.6-3.44,22.25-14.65,40.38-30.41,55.89-9.87,9.72-20.12,19.06-30.21,28.56-.21-.15-.42-.29-.63-.44Z" fill="#769543" stroke-width="0"/>
  <path d="M242.63,291.02c-1.25-1.93-2.44-3.91-3.76-5.79-6.83-9.8-13.69-19.58-20.54-29.37-8.11-9.79-15.94-19.83-24.41-29.31-12.29-13.78-25.05-27.15-37.6-40.71-1.4-1.51-2.68-3.15-4.02-4.73-6.63-9.02-13.69-17.77-19.81-27.14-12.47-19.1-21.18-39.93-26.67-62.09-.07-.26-.09-.54-.15-1,.31.1.57.1.71.24,13.11,12.65,28.77,21.21,45.37,28.24.52.22,1,.52,1.49.78,4.66,1.29,7.98,3.97,11.1,7.9,7.23,9.14,15.23,17.68,23.02,26.38,5.96,6.67,12.07,13.21,18.11,19.8,1.57,1.87,3.15,3.74,4.72,5.61-.2.18-.4.35-.61.52-2.19-2.21-4.39-4.41-6.59-6.62-10.69-9.51-21.97-18.24-34.53-25.18-5-2.77-10.16-5.24-15.25-7.85-9.81-4.34-19.19-9.39-27.47-16.3-.57-.47-1.3-.75-1.96-1.11-.01-.02-.03-.05-.05-.07-.01-.02-.03-.03-.04-.05-.01-.2-.02-.4-.04-.59-.11.04-.22.08-.33.12.12.15.24.32.37.47.01.03.01.05.01.08.03.01.05.03.08.04,2.42,3.13,4.32,6.98,7.4,9.17,5.92,4.22,12.52,7.48,18.85,11.12,1.04.6,2.13,1.12,3.19,1.68,10.12,4.21,19.27,10.11,28.16,16.43,13.5,9.6,25.72,20.54,35.86,33.71.63.82,1.18,1.69,1.77,2.53,5.06,6.36,8.53,13.49,10.18,21.65-3.63-4.1-7.25-8.2-10.88-12.31-11.29-11.49-25.94-17.44-39.93-24.56-7.84-4-15.17-9-22.69-13.61-.94-.58-1.66-1.51-2.48-2.27-2.01-2.02-4.01-4.04-6.5-6.55.89,5.1,3.75,8.28,6.5,11.52,10.43,9.12,22.77,14.99,35.25,20.56,10.64,4.74,20.23,10.9,28.09,19.57.88.97,1.66,2.03,2.49,3.05,1.79,2.16,3.79,4.18,5.34,6.51,3.18,4.77,6.12,9.7,9.18,14.56,3.28,5.21,4.57,11.07,5.45,16.06-6.57-8.07-13.65-16.77-20.73-25.47-6.47-5.13-12.77-10.5-19.49-15.29-3.16-2.25-7.11-3.38-10.95-4.55,11.35,7.98,21.77,16.79,30.53,27.47,9.43,10.4,17.02,22.05,22.86,34.78,1.08,2.35.87,5.34,1.07,8.06.33,4.57.51,9.15.33,13.91Z" fill="#769543" stroke-width="0"/>
  <path d="M359.48,67.74h-.08s0-.03,0-.04l.07.04Z" fill="#35603a" stroke-width="0"/>
  <path d="M119.71,322.66c-.34,0-.69,0-1.03-.02-.25-1.13-.49-2.26-.73-3.4.17-.05.34-.1.52-.14.41,1.19.83,2.37,1.24,3.56Z" fill="#769543" stroke-width="0"/>
  <path d="M359.48,67.74c0-.11.01-.22.02-.33.03.04.09.11.08.13-.04.06-.11.11-.17.16,0,0,.07.04.07.04Z" fill="#35603a" stroke-width="0"/>
  <path d="M123.69,123.17c-.13-.15-.25-.32-.37-.47.11-.04.22-.08.33-.12.02.19.03.39.04.59Z" fill="#fbfbfb" stroke-width="0"/>
  <path d="M123.73,123.22l-.03.03s0-.05-.01-.08c.01.02.03.03.04.05Z" fill="#fbfbfb" stroke-width="0"/>
</svg>